<?xml version="1.0" encoding="utf-8"?>
<!-- Generator: Adobe Illustrator 24.0.0, SVG Export Plug-In . SVG Version: 6.00 Build 0)  -->
<svg version="1.1" id="图层_1" xmlns="http://www.w3.org/2000/svg" xmlns:xlink="http://www.w3.org/1999/xlink" x="0px" y="0px"
	 viewBox="0 0 27.4113674 32.0018578" style="enable-background:new 0 0 27.4113674 32.0018578;" xml:space="preserve">
<style type="text/css">
	.st0{fill:#5FC2A1;}
</style>
<path class="st0" d="M23.460928,19.721859c-0.2454376,1.0769539,0.4286385,2.1489677,1.5055962,2.3944054
	c1.0769539,0.2454414,2.1489677-0.4286385,2.3944054-1.5055923c0.0666656-0.2925224,0.0666656-0.5962906,0-0.888813v-7.7200003
	c0.2454376-1.0769558-0.4286385-2.1489677-1.5055962-2.3944073c-1.0769539-0.2454395-2.1489677,0.4286385-2.3944054,1.5055943
	c-0.0666656,0.2925205-0.0666656,0.5962925,0,0.888813V19.721859z M16.460928,5.4818602c0-0.5522842,0.4477158-1,1-1
	s1,0.4477158,1,1s-0.4477158,1-1,1c-0.540535-0.0162239-0.9702415-0.4592247-0.9699974-1.0000019L16.460928,5.4818602z
	 M9.0509281,5.4818602c0-0.5191479,0.4208527-0.9400005,0.9399986-0.9400005h0.0000019
	c0.5513458-0.032198,1.0244007,0.3886547,1.0565987,0.9400005c0.032196,0.5513458-0.3886566,1.0244007-0.9400005,1.0565987
	C9.556181,6.5706549,9.0831261,6.1498022,9.0509281,5.5984583C9.0486603,5.5596247,9.0486603,5.5206938,9.0509281,5.4818602z
	 M5.0509286,24.2018585c-0.0055408,0.8394547,0.6704807,1.5244598,1.5099354,1.5299988
	c0.0066872,0.0000458,0.0133762,0.0000458,0.0200653,0h1.7199988v4.2700005c-0.0003395,1.0853348,0.8650055,1.9728661,1.9500008,2
	c1.0849953-0.0271339,1.9503403-0.9146652,1.9500008-2v-4.2700005h3v4.2700005
	c-0.0004883,1.0815544,0.8589287,1.9675522,1.9399986,2c1.1045685,0,2-0.8954315,2-2v-4.2700005h1.7200012
	c0.833931,0.0055962,1.5145035-0.6659012,1.5200996-1.4998322c0.0000687-0.0100555,0.0000343-0.0201111-0.0000992-0.0301666
	V10.0818586H5.0709291L5.0509286,24.2018585z M22.340929,8.8518591c-0.3176804-2.6907902-2.0546761-5.0042381-4.5499992-6.0599995
	l1.5999985-2.3299999c0.1005783-0.1174641,0.0868874-0.29422-0.0305748-0.3947983
	c-0.0062485-0.0053501-0.0127296-0.0104218-0.0194244-0.0152016c-0.1363869-0.0718012-0.3049889-0.0285702-0.3899994,0.1000004
	l-1.6800003,2.4099998c-1.1473198-0.4349766-2.363018-0.6618634-3.5900002-0.6700021
	c-1.2334862,0.0081062-2.4557533,0.234955-3.6100006,0.6700002L8.4309292,0.1518583
	c-0.1100006-0.1299992-0.2600002-0.21-0.3899994-0.1000004C7.9126496,0.138215,7.8786645,0.3122129,7.9650216,0.4404935
	c0.004961,0.00737,0.0102711,0.0144997,0.0159092,0.0213642l1.6100001,2.3299999
	C7.0888963,3.8390169,5.3484788,6.1570215,5.0409303,8.8518572L22.340929,8.8518591z M0.0009292,19.721859
	c-0.0003395,1.0853348,0.8650055,1.9728661,1.9500008,2c1.0849954-0.0271339,1.9503404-0.9146652,1.9500009-2v-7.7200003
	c0.0003395-1.0853348-0.8650055-1.972868-1.9500009-2c-1.0714149-0.0060368-1.9448624,0.8576241-1.9508991,1.929039
	c-0.0001335,0.0236568,0.0001659,0.0473156,0.0008984,0.070961V19.721859z"/>
</svg>
