<svg width="91" height="16" viewBox="0 0 91 16" fill="none" xmlns="http://www.w3.org/2000/svg">
<path d="M7.80953 0.380981L9.56288 5.77723H15.2368L10.6465 9.1123L12.3999 14.5085L7.80953 11.1735L3.2192 14.5085L4.97255 9.1123L0.382226 5.77723H6.05618L7.80953 0.380981Z" fill="#FFE24D"/>
<path d="M26.5537 0.380981L28.307 5.77723H33.981L29.3906 9.1123L31.144 14.5085L26.5537 11.1735L21.9633 14.5085L23.7167 9.1123L19.1264 5.77723H24.8003L26.5537 0.380981Z" fill="#FFE24D"/>
<path d="M45.2959 0.380981L47.0492 5.77723H52.7232L48.1328 9.1123L49.8862 14.5085L45.2959 11.1735L40.7055 14.5085L42.4589 9.1123L37.8686 5.77723H43.5425L45.2959 0.380981Z" fill="#FFE24D"/>
<path d="M64.04 0.380981L65.7933 5.77723H71.4673L66.877 9.1123L68.6303 14.5085L64.04 11.1735L59.4497 14.5085L61.203 9.1123L56.6127 5.77723H62.2866L64.04 0.380981Z" fill="#FFE24D"/>
<path d="M82.7802 0.380981L84.5336 5.77723H90.2075L85.6172 9.1123L87.3706 14.5085L82.7802 11.1735L78.1899 14.5085L79.9433 9.1123L75.3529 5.77723H81.0269L82.7802 0.380981Z" fill="white"/>
<path fill-rule="evenodd" clip-rule="evenodd" d="M83 1.05736L82.7802 0.380981L81.027 5.77723H75.3535L79.9435 9.1123L78.1903 14.5085L82.7802 11.1735L83 11.3332V1.05736Z" fill="#FFE24C"/>
</svg>
