<?xml version="1.0" encoding="utf-8"?>
<!-- Generator: Adobe Illustrator 24.0.0, SVG Export Plug-In . SVG Version: 6.00 Build 0)  -->
<svg version="1.1" id="图层_1" xmlns="http://www.w3.org/2000/svg" xmlns:xlink="http://www.w3.org/1999/xlink" x="0px" y="0px"
	 viewBox="0 0 200 200" style="enable-background:new 0 0 200 200;" xml:space="preserve">
<style type="text/css">
	.st0{fill:#3167D9;}
	.st1{fill:#FFFFFF;}
</style>
<path class="st0" d="M100.1250992,199.8000031h-0.0001984c-55.2284241,0-99.9999008-44.7714844-99.9999008-99.9999008v-0.000206
	c0-55.2284164,44.7714806-99.9999008,99.9999008-99.9999008h0.0001984c55.2284164,0,99.9999008,44.7714806,99.9999008,99.9999008
	v0.000206C200.125,155.0285187,155.3535156,199.8000031,100.1250992,199.8000031z"/>
<path class="st1" d="M103.4749985,114.5499954h-19.625l14.7750015-25.5l1.5-2.6000061l10.1250076-17.4000015l1.9500046-3.3999939
	l4.2000046-7.1999969c1.8499985-3.1500015,1.9000015-7.2000046-0.1999969-10.1750031
	c-1.8000031-2.5499992-4.3750076-3.5750008-6.9250031-3.5750008c-2.9999924,0-5.9249954,1.5500031-7.5749969,4.3500023
	l-1.5,2.6500015l-1.5500031-2.6500015c-1.6499939-2.7999992-4.5999985-4.3499985-7.5749969-4.3499985
	c-1.5,0-2.9999924,0.3500023-4.3999939,1.1500015c-4.1500015,2.3999977-5.5750046,7.7750015-3.1500015,11.9249992
	l6.5250015,11.2749977l-26.4000015,45.5499954H46.5c-5.25,0.0499954-9.4500008,4.7000046-8.625,10.1750031
	c0.6500015,4.3000031,4.6749992,7.2999878,9.0249977,7.2999878h6.6249962l20.2000046-0.0499878h40.3249969
	c0.7500076,0,1.5-0.3249969,1.9500046-0.9250031c2.2999954-3.0750122,3.9999924-7.8500061-1.6250076-12.7750092
	c-2.9749985-2.625-6.9499969-3.7750015-10.8999939-3.7750015V114.5499954z"/>
<path class="st1" d="M153.375,114.5h-16.7999878l-22.4750061-38.7750015
	c-0.3999939-0.6750031-1.3000031-0.9000015-1.9250031-0.4499969c-3.1500015,2.2750015-5,5.4499969-5.9500046,8.9499969
	C104.625,90.125,105.9499969,96.4500046,109,101.7499924l4.8249969,8.375l2.5499954,4.4499969L126.5,132.0249939l1.0499954,1.75
	l9.7249985,16.8000031c1.6499939,2.8000031,4.5500031,4.3499908,7.5249939,4.3499908c1.5,0,3.0500183-0.3999939,4.4500122-1.1999969
	c4.1499939-2.4000092,5.5749969-7.7250061,3.1499939-11.9249878l-5.6750031-9.8250122h7.0749969
	c5.25,0,9.4249878-4.75,8.5749969-10.2249908c-0.6999969-4.2750015-4.6749878-7.25-9-7.25H153.375z M62.4249992,134.3000031
	c-3.0749969-1.25-5.9750023-1.1000061-8.2999992-0.4499969c-1.2750053,0.3499908-2.3250008,1.2249908-2.9749985,2.3499908
	l-3.25,5.5500031c-2.4500008,4.2000122-1,9.5250092,3.1500015,11.9250031C52.4500008,154.4750061,54.0000038,154.875,55.5,154.875
	c2.9999962,0,5.875-1.5499878,7.4750023-4.3499908l3.7000008-6.375c0.9000015-1.5750122,1.0749969-3.4750061,0.4000015-5.1499939
	C66.3250046,137.1250153,64.9250031,135.3250122,62.4249992,134.3000031z"/>
</svg>
