<svg width="120" height="40" viewBox="0 0 120 40" fill="none" xmlns="http://www.w3.org/2000/svg">
<g opacity="0.6">
<path d="M110.1 0H9.5C9.2 0 8.8 0 8.4 0C8.1 0 7.8 0 7.5 0C6.8 0 6.2 0.1 5.5 0.2C4.9 0.3 4.2 0.5 3.6 0.8C3 1.1 2.5 1.5 2 2C1.5 2.5 1.1 3 0.8 3.6C0.5 4.2 0.3 4.9 0.2 5.5C0.1 6.2 0 6.9 0 7.5C0 7.8 0 8.1 0 8.4V31.5C0 31.8 0 32.1 0 32.4C0 33.1 0.1 33.7 0.2 34.4C0.3 35.1 0.5 35.7 0.8 36.3C1.1 37 1.5 37.5 2 38C2.5 38.5 3 38.9 3.6 39.2C4.2 39.5 4.8 39.7 5.5 39.8C6.2 39.9 6.8 40 7.5 40C7.8 40 8.1 40 8.4 40C8.8 40 9.1 40 9.5 40H110.1C110.5 40 110.8 40 111.2 40C111.5 40 111.8 40 112.1 40C112.8 40 113.4 39.9 114.1 39.8C114.8 39.7 115.4 39.5 116 39.2C116.6 38.9 117.1 38.5 117.6 38C118.1 37.5 118.5 37 118.8 36.4C119.1 35.8 119.3 35.2 119.4 34.5C119.5 33.8 119.6 33.2 119.6 32.5C119.6 32.2 119.6 31.9 119.6 31.6C119.6 31.2 119.6 30.9 119.6 30.5V9.5C119.6 9.1 119.6 8.8 119.6 8.4C119.6 8.1 119.6 7.8 119.6 7.5C119.6 6.8 119.5 6.2 119.4 5.5C119.3 4.8 119.1 4.2 118.8 3.6C118.2 2.4 117.2 1.4 116 0.8C115.4 0.5 114.8 0.3 114.1 0.2C113.4 0.1 112.8 0 112.1 0C111.8 0 111.5 0 111.2 0C110.9 0 110.5 0 110.1 0Z" fill="#A6A6A6"/>
<path d="M8.40078 39.0999C8.10078 39.0999 7.80078 39.0999 7.50078 39.0999C6.90078 39.0999 6.20078 38.9999 5.60078 38.8999C5.00078 38.7999 4.50078 38.5999 3.90078 38.3999C3.40078 38.0999 2.90078 37.7999 2.50078 37.3999C2.10078 36.9999 1.70078 36.4999 1.50078 35.9999C1.20078 35.4999 1.10078 34.8999 1.00078 34.2999C0.900781 33.6999 0.800781 33.0999 0.800781 32.3999C0.800781 32.1999 0.800781 31.4999 0.800781 31.4999V8.3999C0.800781 8.3999 0.800781 7.6999 0.800781 7.4999C0.800781 6.8999 0.900781 6.1999 1.00078 5.5999C1.10078 5.0999 1.30078 4.4999 1.60078 3.9999C1.90078 3.4999 2.20078 2.9999 2.60078 2.5999C3.00078 2.1999 3.50078 1.8999 4.00078 1.5999C4.50078 1.2999 5.10078 1.1999 5.70078 1.0999C6.30078 0.999902 6.90078 0.899902 7.60078 0.899902H8.50078H111.301H112.201C112.801 0.899902 113.401 0.999902 114.101 1.0999C114.701 1.1999 115.201 1.3999 115.801 1.5999C116.801 2.0999 117.701 2.9999 118.201 3.9999C118.501 4.4999 118.601 5.0999 118.701 5.5999C118.801 6.1999 118.901 6.8999 118.901 7.4999C118.901 7.7999 118.901 8.0999 118.901 8.3999C118.901 8.7999 118.901 9.0999 118.901 9.4999V30.3999C118.901 30.7999 118.901 31.0999 118.901 31.4999C118.901 31.7999 118.901 32.0999 118.901 32.3999C118.901 32.9999 118.801 33.5999 118.701 34.2999C118.601 34.8999 118.401 35.3999 118.201 35.9999C117.901 36.4999 117.601 36.9999 117.201 37.3999C116.801 37.7999 116.301 38.1999 115.801 38.3999C115.301 38.6999 114.701 38.8999 114.101 38.8999C113.501 38.9999 112.901 39.0999 112.201 39.0999C111.901 39.0999 111.601 39.0999 111.301 39.0999H110.201H8.40078Z" fill="black"/>
<path d="M24.7998 20.3004C24.7998 18.6004 25.6998 17.0004 27.1998 16.1004C26.2998 14.8004 24.7998 14.0004 23.1998 13.9004C21.4998 13.7004 19.8998 14.9004 18.9998 14.9004C18.0998 14.9004 16.7998 13.9004 15.3998 13.9004C13.4998 14.0004 11.7998 15.0004 10.8998 16.6004C8.99984 19.9004 10.3998 24.9004 12.2998 27.6004C13.1998 28.9004 14.2998 30.4004 15.6998 30.4004C17.0998 30.3004 17.5998 29.5004 19.2998 29.5004C20.9998 29.5004 21.3998 30.4004 22.8998 30.4004C24.3998 30.4004 25.2998 29.1004 26.1998 27.7004C26.8998 26.8004 27.3998 25.7004 27.6998 24.6004C25.8998 24.0004 24.7998 22.2004 24.7998 20.3004Z" fill="white"/>
<path d="M22.0003 12.2002C22.8003 11.2002 23.2003 10.0002 23.1003 8.7002C21.9003 8.8002 20.7003 9.4002 19.9003 10.4002C19.1003 11.3002 18.7003 12.5002 18.8003 13.8002C20.1003 13.8002 21.2003 13.2002 22.0003 12.2002Z" fill="white"/>
<path d="M42.3 27.1006H37.6L36.5 30.5006H34.5L39 18.1006H41L45.5 30.5006H43.5L42.3 27.1006ZM38.1 25.6006H41.9L40 20.1006H39.9L38.1 25.6006Z" fill="white"/>
<path d="M55.1992 26.0003C55.1992 28.8003 53.6992 30.6003 51.3992 30.6003C50.1992 30.7003 49.0992 30.0003 48.5992 29.0003V33.5003H46.6992V21.5003H48.4992V23.0003C49.0992 22.0003 50.1992 21.4003 51.3992 21.4003C53.5992 21.3003 55.1992 23.2003 55.1992 26.0003ZM53.1992 26.0003C53.1992 24.2003 52.2992 23.0003 50.7992 23.0003C49.3992 23.0003 48.3992 24.2003 48.3992 26.0003C48.3992 27.8003 49.3992 29.0003 50.7992 29.0003C52.2992 29.0003 53.1992 27.8003 53.1992 26.0003Z" fill="white"/>
<path d="M65.0996 26.0003C65.0996 28.8003 63.5996 30.6003 61.2996 30.6003C60.0996 30.7003 58.9996 30.0003 58.4996 29.0003V33.5003H56.5996V21.5003H58.3996V23.0003C58.9996 22.0003 60.0996 21.4003 61.2996 21.4003C63.5996 21.3003 65.0996 23.2003 65.0996 26.0003ZM63.1996 26.0003C63.1996 24.2003 62.2996 23.0003 60.7996 23.0003C59.3996 23.0003 58.3996 24.2003 58.3996 26.0003C58.3996 27.8003 59.3996 29.0003 60.7996 29.0003C62.2996 29.0003 63.1996 27.8003 63.1996 26.0003Z" fill="white"/>
<path d="M71.7 27.0004C71.8 28.2004 73 29.0004 74.7 29.0004C76.3 29.0004 77.4 28.2004 77.4 27.1004C77.4 26.1004 76.7 25.6004 75.1 25.2004L73.5 24.8004C71.2 24.2004 70.2 23.2004 70.2 21.5004C70.2 19.4004 72.1 17.9004 74.7 17.9004C77.3 17.9004 79.1 19.4004 79.2 21.5004H77.3C77.2 20.3004 76.2 19.5004 74.7 19.5004C73.2 19.5004 72.2 20.3004 72.2 21.4004C72.2 22.3004 72.9 22.8004 74.5 23.2004L75.9 23.5004C78.4 24.1004 79.5 25.1004 79.5 26.9004C79.5 29.2004 77.6 30.7004 74.7 30.7004C71.9 30.7004 70.1 29.3004 70 27.0004H71.7Z" fill="white"/>
<path d="M83.2992 19.3008V21.4008H84.9992V22.9008H83.2992V27.9008C83.2992 28.7008 83.5992 29.0008 84.3992 29.0008C84.5992 29.0008 84.7992 29.0008 84.9992 29.0008V30.5008C84.6992 30.6008 84.2992 30.6008 83.9992 30.6008C82.1992 30.6008 81.4992 29.9008 81.4992 28.2008V23.0008H80.1992V21.5008H81.4992V19.4008H83.2992V19.3008Z" fill="white"/>
<path d="M86.0996 26.0004C86.0996 23.2004 87.7996 21.4004 90.3996 21.4004C92.9996 21.4004 94.6996 23.2004 94.6996 26.0004C94.6996 28.9004 92.9996 30.6004 90.3996 30.6004C87.6996 30.6004 86.0996 28.8004 86.0996 26.0004ZM92.7996 26.0004C92.7996 24.0004 91.8996 22.9004 90.3996 22.9004C88.8996 22.9004 87.9996 24.0004 87.9996 26.0004C87.9996 28.0004 88.8996 29.1004 90.3996 29.1004C91.8996 29.1004 92.7996 27.9004 92.7996 26.0004Z" fill="white"/>
<path d="M96.1992 21.4001H97.9992V23.0001C98.1992 22.0001 99.1992 21.3001 100.199 21.4001C100.399 21.4001 100.599 21.4001 100.799 21.5001V23.2001C100.499 23.1001 100.199 23.1001 99.9992 23.1001C98.9992 23.1001 98.0992 23.9001 98.0992 24.9001C98.0992 25.0001 98.0992 25.1001 98.0992 25.2001V30.6001H96.1992V21.4001Z" fill="white"/>
<path d="M109.399 27.8008C109.199 29.4008 107.499 30.6008 105.499 30.6008C102.899 30.6008 101.199 28.8008 101.199 26.0008C101.199 23.2008 102.799 21.3008 105.399 21.3008C107.899 21.3008 109.499 23.0008 109.499 25.8008V26.4008H103.099V26.5008C102.999 27.8008 103.899 28.9008 105.199 29.1008C105.299 29.1008 105.399 29.1008 105.499 29.1008C106.399 29.2008 107.299 28.7008 107.599 27.8008H109.399ZM103.099 25.1008H107.599C107.699 23.9008 106.699 22.9008 105.499 22.8008C105.399 22.8008 105.399 22.8008 105.299 22.8008C104.099 22.8008 103.099 23.8008 103.099 25.1008Z" fill="white"/>
<path d="M37.7996 8.70059C39.2996 8.60059 40.4996 9.70059 40.5996 11.1006C40.5996 11.3006 40.5996 11.4006 40.5996 11.6006C40.5996 13.5006 39.5996 14.6006 37.7996 14.6006H35.5996V8.60059H37.7996V8.70059ZM36.5996 13.9006H37.6996C38.6996 14.0006 39.5996 13.2006 39.6996 12.1006C39.6996 12.0006 39.6996 11.8006 39.6996 11.7006C39.7996 10.7006 39.0996 9.70059 38.0996 9.60059C37.9996 9.60059 37.8996 9.60059 37.6996 9.60059H36.5996V13.9006Z" fill="white"/>
<path d="M41.6998 12.4002C41.5998 11.2002 42.3998 10.2002 43.5998 10.1002C44.7998 10.0002 45.7998 10.8002 45.8998 12.0002C45.8998 12.1002 45.8998 12.3002 45.8998 12.4002C45.9998 13.6002 45.1998 14.6002 43.9998 14.7002C42.7998 14.8002 41.7998 14.0002 41.6998 12.8002C41.6998 12.7002 41.6998 12.6002 41.6998 12.4002ZM44.9998 12.4002C44.9998 11.4002 44.5998 10.9002 43.7998 10.9002C42.9998 10.9002 42.5998 11.5002 42.5998 12.4002C42.5998 13.4002 42.9998 14.0002 43.7998 14.0002C44.5998 14.0002 44.9998 13.4002 44.9998 12.4002Z" fill="white"/>
<path d="M51.5992 14.7002H50.6992L49.7992 11.4002H49.6992L48.7992 14.7002H47.8992L46.6992 10.2002H47.5992L48.3992 13.6002H48.4992L49.3992 10.2002H50.2992L51.1992 13.6002H51.2992L52.0992 10.2002H52.9992L51.5992 14.7002Z" fill="white"/>
<path d="M53.9004 10.2002H54.8004V10.9002H54.9004C55.1004 10.4002 55.7004 10.1002 56.2004 10.1002C57.0004 10.0002 57.7004 10.6002 57.8004 11.5002C57.8004 11.6002 57.8004 11.7002 57.8004 11.8002V14.7002H56.9004V12.0002C56.9004 11.3002 56.6004 10.9002 55.9004 10.9002C55.3004 10.9002 54.8004 11.3002 54.8004 11.9002C54.8004 12.0002 54.8004 12.0002 54.8004 12.1002V14.7002H53.9004V10.2002Z" fill="white"/>
<path d="M59.0996 8.40039H59.9996V14.7004H59.0996V8.40039Z" fill="white"/>
<path d="M61.1998 12.4002C61.0998 11.2002 61.8998 10.2002 63.0998 10.1002C64.2998 10.0002 65.2998 10.8002 65.3998 12.0002C65.3998 12.1002 65.3998 12.3002 65.3998 12.4002C65.4998 13.6002 64.6998 14.6002 63.4998 14.7002C62.2998 14.8002 61.2998 14.0002 61.1998 12.8002C61.1998 12.7002 61.1998 12.6002 61.1998 12.4002ZM64.5998 12.4002C64.5998 11.4002 64.1998 10.9002 63.3998 10.9002C62.5998 10.9002 62.1998 11.5002 62.1998 12.4002C62.1998 13.4002 62.5998 14.0002 63.3998 14.0002C64.0998 14.0002 64.5998 13.4002 64.5998 12.4002Z" fill="white"/>
<path d="M66.3988 13.4006C66.3988 12.6006 66.9988 12.1006 68.0988 12.1006L69.2988 12.0006V11.6006C69.2988 11.1006 68.9988 10.9006 68.3988 10.9006C67.8988 10.9006 67.5988 11.1006 67.4988 11.4006H66.5988C66.6988 10.6006 67.3988 10.1006 68.3988 10.1006C69.4988 10.1006 70.1988 10.7006 70.1988 11.6006V14.7006H69.2988V14.1006H69.1988C68.8988 14.6006 68.3988 14.8006 67.7988 14.8006C67.0988 14.9006 66.3988 14.3006 66.2988 13.6006C66.3988 13.5006 66.3988 13.5006 66.3988 13.4006ZM69.2988 13.0006V12.6006L68.1988 12.7006C67.5988 12.7006 67.2988 13.0006 67.2988 13.3006C67.2988 13.7006 67.6988 13.9006 68.0988 13.9006C68.6988 14.1006 69.1988 13.7006 69.2988 13.0006C69.2988 13.1006 69.2988 13.1006 69.2988 13.0006Z" fill="white"/>
<path d="M71.2988 12.4004C71.2988 11.0004 71.9988 10.1004 73.1988 10.1004C73.7988 10.1004 74.2988 10.4004 74.5988 10.9004H74.6988V8.40039H75.5988V14.7004H74.6988V14.0004H74.5988C74.2988 14.5004 73.7988 14.8004 73.1988 14.8004C72.0988 14.8004 71.2988 13.9004 71.2988 12.4004ZM72.2988 12.4004C72.2988 13.4004 72.7988 13.9004 73.4988 13.9004C74.1988 13.9004 74.6988 13.3004 74.6988 12.4004C74.6988 11.5004 74.1988 10.9004 73.4988 10.9004C72.6988 10.9004 72.2988 11.5004 72.2988 12.4004Z" fill="white"/>
<path d="M79.1998 12.4002C79.0998 11.2002 79.8998 10.2002 81.0998 10.1002C82.2998 10.0002 83.2998 10.8002 83.3998 12.0002C83.3998 12.1002 83.3998 12.3002 83.3998 12.4002C83.4998 13.6002 82.6998 14.6002 81.4998 14.7002C80.2998 14.8002 79.2998 14.0002 79.1998 12.8002C79.1998 12.7002 79.1998 12.6002 79.1998 12.4002ZM82.5998 12.4002C82.5998 11.4002 82.1998 10.9002 81.3998 10.9002C80.5998 10.9002 80.1998 11.5002 80.1998 12.4002C80.1998 13.4002 80.5998 14.0002 81.3998 14.0002C82.0998 14.0002 82.5998 13.4002 82.5998 12.4002Z" fill="white"/>
<path d="M84.6992 10.2002H85.5992V10.9002H85.6992C85.8992 10.4002 86.4992 10.1002 86.9992 10.1002C87.7992 10.0002 88.4992 10.6002 88.5992 11.5002C88.5992 11.6002 88.5992 11.7002 88.5992 11.8002V14.7002H87.6992V12.0002C87.6992 11.3002 87.3992 10.9002 86.6992 10.9002C86.0992 10.9002 85.5992 11.3002 85.5992 11.9002C85.5992 12.0002 85.5992 12.0002 85.5992 12.1002V14.7002H84.6992V10.2002Z" fill="white"/>
<path d="M93.4988 9.10059V10.2006H94.4988V11.0006H93.4988V13.3006C93.4988 13.8006 93.6988 14.0006 94.0988 14.0006C94.1988 14.0006 94.2988 14.0006 94.3988 14.0006V14.7006C94.1988 14.7006 94.0988 14.7006 93.8988 14.7006C92.8988 14.7006 92.4988 14.4006 92.4988 13.5006V11.0006H91.7988V10.3006H92.4988V9.10059H93.4988Z" fill="white"/>
<path d="M95.6992 8.40039H96.5992V10.9004H96.6992C96.8992 10.4004 97.4992 10.0004 98.0992 10.1004C98.8992 10.1004 99.5992 10.7004 99.6992 11.5004C99.6992 11.6004 99.6992 11.7004 99.6992 11.8004V14.7004H98.7992V12.0004C98.7992 11.3004 98.4992 10.9004 97.7992 10.9004C97.1992 10.9004 96.6992 11.3004 96.6992 11.9004C96.6992 12.0004 96.6992 12.0004 96.6992 12.1004V14.7004H95.7992L95.6992 8.40039Z" fill="white"/>
<path d="M104.801 13.5002C104.601 14.3002 103.701 14.9002 102.801 14.8002C101.701 14.8002 100.701 13.9002 100.701 12.8002C100.701 12.7002 100.701 12.6002 100.701 12.5002C100.501 11.4002 101.301 10.3002 102.501 10.2002C102.601 10.2002 102.701 10.2002 102.801 10.2002C104.101 10.2002 104.801 11.1002 104.801 12.5002V12.8002H101.601C101.501 13.5002 102.001 14.0002 102.701 14.1002H102.801C103.201 14.2002 103.701 13.9002 103.901 13.6002L104.801 13.5002ZM101.601 12.0002H103.901C103.901 11.4002 103.501 10.9002 102.901 10.8002H102.801C102.201 10.9002 101.601 11.4002 101.601 12.0002Z" fill="white"/>
</g>
</svg>
