<?xml version="1.0" encoding="utf-8"?>
<!-- Generator: Adobe Illustrator 24.0.0, SVG Export Plug-In . SVG Version: 6.00 Build 0)  -->
<svg version="1.1" id="图层_1" xmlns="http://www.w3.org/2000/svg" xmlns:xlink="http://www.w3.org/1999/xlink" x="0px" y="0px"
	 viewBox="0 0 51.8138809 60.924572" style="enable-background:new 0 0 51.8138809 60.924572;" xml:space="preserve">
<style type="text/css">
	.st0{fill:#000000;}
</style>
<path class="st0" d="M34.0380707,9.5955725c2.3380852-2.5685229,3.2307472-6.1391592,2.376442-9.5057793
	c-0.3992386-0.3992428-5.532362,0.3992428-9.1065369,5.1331224c-3.1559181,4.3536487-3.1559181,9.0875263-2.7566776,9.5057793
	S30.0836678,14.7286911,34.0380707,9.5955725z M42.7263489,31.7250252
	c-0.3992386-6.3308487,5.5323639-10.2662411,6.7300949-11.0647259v-0.3992405c0,0-5.1521301-6.2928295-12.6616974-5.9316092
	c-4.7338829,0.3992414-7.1103268,2.7756891-10.2662449,2.7756891c-3.9544048,0-7.6046238-2.7756853-11.8632126-2.7756853
	c-3.5551624,0-13.840416,3.1749315-14.6198893,16.5970917s8.688282,26.1028709,12.2624569,28.5173378
	c3.5741749,2.4144707,5.9125967,1.5779648,9.8669996-0.3802338c3.8757248-1.5032349,8.2175007-1.2179565,11.8632145,0.7794762
	c4.3536453,1.577961,10.6654854,0.3992386,17.7758102-15.4183769C51.0344086,44.3867226,43.1255989,42.485569,42.7263489,31.7250252
	z"/>
</svg>
