<svg width="120" height="36" viewBox="0 0 120 36" fill="none" xmlns="http://www.w3.org/2000/svg">
<g opacity="0.6">
<path fill-rule="evenodd" clip-rule="evenodd" d="M115.6 35.4H4.4C2 35.4 0 33.4 0 31V4.4C0 2 2 0 4.4 0H115.5C117.9 0 119.9 2 119.9 4.4V31C120 33.4 118 35.4 115.6 35.4Z" fill="black"/>
<path fill-rule="evenodd" clip-rule="evenodd" d="M115.6 0.7C117.7 0.7 119.3 2.4 119.3 4.4V31C119.3 33 117.6 34.7 115.6 34.7H4.4C2.3 34.7 0.7 33 0.7 31V4.4C0.7 2.4 2.4 0.7 4.4 0.7H115.6ZM115.6 0H4.4C2 0 0 2 0 4.4V31C0 33.4 2 35.4 4.4 35.4H115.5C117.9 35.4 119.9 33.4 119.9 31V4.4C120 2 118 0 115.6 0Z" fill="#A6A6A6"/>
<path d="M63.1996 11.7001C62.3996 11.7001 61.6996 11.4001 61.1996 10.9001C60.6996 10.4001 60.3996 9.6001 60.3996 8.9001C60.3996 8.1001 60.6996 7.4001 61.1996 6.9001C61.6996 6.3001 62.3996 6.1001 63.1996 6.1001C63.9996 6.1001 64.6996 6.4001 65.1996 6.9001C65.6996 7.5001 65.9996 8.1001 65.9996 8.9001C65.9996 9.7001 65.6996 10.4001 65.1996 10.9001C64.6996 11.4001 63.9996 11.7001 63.1996 11.7001ZM39.3996 11.7001C38.5996 11.7001 37.8996 11.4001 37.3996 10.9001C36.7996 10.4001 36.5996 9.7001 36.5996 8.9001C36.5996 8.1001 36.8996 7.4001 37.3996 6.9001C37.8996 6.4001 38.5996 6.1001 39.3996 6.1001C39.7996 6.1001 40.1996 6.2001 40.4996 6.3001C40.8996 6.5001 41.0996 6.7001 41.3996 6.9001L41.4996 7.0001L40.8996 7.6001L40.7996 7.5001C40.3996 7.0001 39.9996 6.8001 39.3996 6.8001C38.8996 6.8001 38.3996 7.0001 37.9996 7.4001C37.5996 7.8001 37.3996 8.3001 37.3996 8.9001C37.3996 9.5001 37.5996 10.0001 37.9996 10.4001C38.3996 10.8001 38.7996 11.0001 39.3996 11.0001C39.9996 11.0001 40.3996 10.8001 40.7996 10.4001C40.9996 10.2001 41.1996 9.9001 41.1996 9.5001H39.2996V8.6001H41.9996V8.7001C41.9996 8.8001 41.9996 9.0001 41.9996 9.1001C41.9996 9.9001 41.7996 10.5001 41.2996 10.9001C40.8996 11.4001 40.1996 11.7001 39.3996 11.7001ZM71.0996 11.6001H70.2996L67.6996 7.5001V8.2001V11.6001H66.8996V6.1001H67.8996L70.2996 10.0001V9.3001V6.1001H71.1996L71.0996 11.6001ZM56.8996 11.6001H55.9996V6.9001H54.4996V6.1001H58.2996V6.9001H56.7996L56.8996 11.6001ZM53.7996 11.6001H52.9996V6.1001H53.8996V11.6001H53.7996ZM48.9996 11.6001H48.0996V6.9001H46.5996V6.1001H50.3996V6.9001H48.9996V11.6001ZM46.0996 11.6001H42.7996V6.1001H46.0996V6.9001H43.6996V8.4001H45.8996V9.2001H43.6996V10.7001H46.0996V11.6001ZM61.7996 10.3001C62.1996 10.7001 62.5996 10.9001 63.1996 10.9001C63.7996 10.9001 64.1996 10.7001 64.5996 10.3001C64.9996 9.9001 65.1996 9.4001 65.1996 8.8001C65.1996 8.2001 64.9996 7.7001 64.5996 7.3001C64.1996 6.9001 63.7996 6.7001 63.1996 6.7001C62.5996 6.7001 62.1996 6.9001 61.7996 7.3001C61.3996 7.7001 61.1996 8.2001 61.1996 8.8001C61.2996 9.4001 61.4996 9.9001 61.7996 10.3001Z" fill="white"/>
<path fill-rule="evenodd" clip-rule="evenodd" d="M60.3008 19.3002C58.2008 19.3002 56.5008 20.9002 56.5008 23.1002C56.5008 25.3002 58.2008 26.9002 60.3008 26.9002C62.4008 26.9002 64.1008 25.3002 64.1008 23.1002C64.1008 20.8002 62.4008 19.3002 60.3008 19.3002ZM60.3008 25.3002C59.2008 25.3002 58.2008 24.4002 58.2008 23.0002C58.2008 21.6002 59.2008 20.7002 60.3008 20.7002C61.4008 20.7002 62.4008 21.6002 62.4008 23.0002C62.4008 24.4002 61.5008 25.3002 60.3008 25.3002ZM52.1008 19.3002C50.0008 19.3002 48.3008 20.9002 48.3008 23.1002C48.3008 25.3002 50.0008 26.9002 52.1008 26.9002C54.2008 26.9002 55.9008 25.3002 55.9008 23.1002C55.8008 20.8002 54.2008 19.3002 52.1008 19.3002ZM52.1008 25.3002C51.0008 25.3002 50.0008 24.4002 50.0008 23.0002C50.0008 21.6002 51.0008 20.7002 52.1008 20.7002C53.2008 20.7002 54.2008 21.6002 54.2008 23.0002C54.2008 24.4002 53.2008 25.3002 52.1008 25.3002ZM42.3008 20.4002V22.0002H46.1008C46.0008 22.9002 45.7008 23.6002 45.2008 24.0002C44.6008 24.6002 43.8008 25.2002 42.2008 25.2002C39.8008 25.2002 38.0008 23.3002 38.0008 21.0002C38.0008 18.7002 39.8008 16.8002 42.2008 16.8002C43.5008 16.8002 44.4008 17.3002 45.1008 17.9002L46.2008 16.8002C45.2008 15.9002 44.0008 15.2002 42.2008 15.2002C39.0008 15.2002 36.3008 17.8002 36.3008 21.0002C36.3008 24.2002 39.0008 26.8002 42.2008 26.8002C43.9008 26.8002 45.2008 26.2002 46.3008 25.2002C47.4008 24.1002 47.7008 22.7002 47.7008 21.5002C47.7008 21.1002 47.7008 20.8002 47.6008 20.5002L42.3008 20.4002ZM82.4008 21.6002C82.1008 20.8002 81.1008 19.2002 79.2008 19.2002C77.3008 19.2002 75.7008 20.7002 75.7008 23.0002C75.7008 25.1002 77.3008 26.8002 79.4008 26.8002C81.1008 26.8002 82.1008 25.7002 82.5008 25.1002L81.2008 24.2002C80.8008 24.8002 80.2008 25.2002 79.4008 25.2002C78.6008 25.2002 78.0008 24.8002 77.6008 24.1002L82.6008 22.0002C82.6008 22.1002 82.4008 21.6002 82.4008 21.6002ZM77.2008 22.9002C77.2008 21.4002 78.3008 20.7002 79.2008 20.7002C79.9008 20.7002 80.4008 21.0002 80.6008 21.5002L77.2008 22.9002ZM73.2008 26.6002H74.9008V15.5002H73.2008V26.6002ZM70.4008 20.1002C70.0008 19.7002 69.3008 19.3002 68.4008 19.3002C66.5008 19.3002 64.8008 21.0002 64.8008 23.1002C64.8008 25.2002 66.5008 26.8002 68.4008 26.8002C69.3008 26.8002 70.0008 26.4002 70.4008 25.9002H70.5008V26.4002C70.5008 27.8002 69.7008 28.6002 68.5008 28.6002C67.5008 28.6002 66.9008 27.9002 66.6008 27.3002L65.2008 27.9002C65.6008 28.9002 66.7008 30.1002 68.5008 30.1002C70.4008 30.1002 72.1008 29.0002 72.1008 26.2002V19.4002H70.5008L70.4008 20.1002ZM68.5008 25.3002C67.4008 25.3002 66.4008 24.3002 66.4008 23.0002C66.4008 21.7002 67.4008 20.7002 68.5008 20.7002C69.6008 20.7002 70.5008 21.7002 70.5008 23.0002C70.6008 24.3002 69.7008 25.3002 68.5008 25.3002ZM90.1008 15.5002H86.1008V26.6002H87.8008V22.4002H90.1008C91.9008 22.4002 93.7008 21.1002 93.7008 19.0002C93.7008 16.9002 92.0008 15.5002 90.1008 15.5002ZM90.2008 20.8002H87.8008V17.0002H90.2008C91.4008 17.0002 92.1008 18.0002 92.1008 18.9002C92.1008 19.8002 91.4008 20.8002 90.2008 20.8002ZM100.401 19.2002C99.2008 19.2002 98.0008 19.7002 97.4008 20.9002L98.9008 21.5002C99.2008 20.9002 99.8008 20.7002 100.401 20.7002C101.301 20.7002 102.101 21.2002 102.101 22.1002V22.2002C101.801 22.0002 101.201 21.8002 100.401 21.8002C98.8008 21.8002 97.2008 22.7002 97.2008 24.3002C97.2008 25.8002 98.5008 26.7002 99.9008 26.7002C101.001 26.7002 101.601 26.2002 102.001 25.6002H102.101V26.5002H103.701V22.3002C103.701 20.3002 102.301 19.2002 100.401 19.2002ZM100.201 25.3002C99.7008 25.3002 98.9008 25.0002 98.9008 24.4002C98.9008 23.5002 99.8008 23.2002 100.701 23.2002C101.401 23.2002 101.801 23.4002 102.201 23.6002C102.001 24.5002 101.201 25.3002 100.201 25.3002ZM109.501 19.5002L107.601 24.3002H107.501L105.501 19.5002H103.701L106.701 26.2002L105.001 29.9002H106.701L111.201 19.5002H109.501ZM94.7008 26.6002H96.4008V15.5002H94.7008V26.6002Z" fill="white"/>
<path fill-rule="evenodd" clip-rule="evenodd" d="M9.20078 6.7002C9.00078 6.9002 8.80078 7.4002 8.80078 7.9002V27.5002C8.80078 28.1002 8.90078 28.5002 9.20078 28.7002L9.30078 28.8002L20.3008 17.8002V17.6002L9.20078 6.7002Z" fill="url(#paint0_linear_4069_909)"/>
<path fill-rule="evenodd" clip-rule="evenodd" d="M23.8992 21.4998L20.1992 17.7998V17.4998L23.8992 13.7998H23.9992L28.2992 16.2998C29.4992 16.9998 29.4992 18.0998 28.2992 18.8998L23.8992 21.4998C23.9992 21.3998 23.8992 21.4998 23.8992 21.4998Z" fill="url(#paint1_linear_4069_909)"/>
<path fill-rule="evenodd" clip-rule="evenodd" d="M24.0008 21.4002L20.3008 17.7002L9.30078 28.7002C9.70078 29.1002 10.4008 29.2002 11.1008 28.8002L24.0008 21.4002Z" fill="url(#paint2_linear_4069_909)"/>
<path fill-rule="evenodd" clip-rule="evenodd" d="M24.0008 14.0001L11.1008 6.60007C10.3008 6.20007 9.70078 6.20007 9.30078 6.70007L20.3008 17.7001L24.0008 14.0001Z" fill="url(#paint3_linear_4069_909)"/>
<path opacity="0.2" fill-rule="evenodd" clip-rule="evenodd" d="M23.8992 21.3999L11.0992 28.6999C10.3992 29.0999 9.69922 29.0999 9.29922 28.6999L9.19922 28.7999L9.29922 28.8999C9.69922 29.2999 10.3992 29.2999 11.0992 28.8999L23.8992 21.3999Z" fill="black"/>
<path opacity="0.12" fill-rule="evenodd" clip-rule="evenodd" d="M28.3004 18.9002L23.9004 21.4002L24.0004 21.5002L28.3004 19.0002C28.9004 18.6002 29.2004 18.2002 29.2004 17.7002C29.2004 18.1002 28.9004 18.5002 28.3004 18.9002Z" fill="black"/>
<path opacity="0.25" fill-rule="evenodd" clip-rule="evenodd" d="M11.1008 6.69994L28.4008 16.4999C29.0008 16.7999 29.3008 17.1999 29.3008 17.6999C29.3008 17.1999 29.0008 16.7999 28.4008 16.3999L11.1008 6.59994C9.80078 5.89994 8.80078 6.49994 8.80078 7.89994V7.99994C8.80078 6.59994 9.80078 5.99994 11.1008 6.69994Z" fill="white"/>
</g>
<defs>
<linearGradient id="paint0_linear_4069_909" x1="19.2981" y1="7.70651" x2="1.73009" y2="12.3881" gradientUnits="userSpaceOnUse">
<stop stop-color="#00A0FF"/>
<stop offset="0.00657" stop-color="#00A1FF"/>
<stop offset="0.2601" stop-color="#00BEFF"/>
<stop offset="0.5122" stop-color="#00D2FF"/>
<stop offset="0.7604" stop-color="#00DFFF"/>
<stop offset="1" stop-color="#00E3FF"/>
</linearGradient>
<linearGradient id="paint1_linear_4069_909" x1="29.9509" y1="17.7045" x2="8.53057" y2="17.7045" gradientUnits="userSpaceOnUse">
<stop stop-color="#FFE000"/>
<stop offset="0.4087" stop-color="#FFBD00"/>
<stop offset="0.7754" stop-color="#FFA500"/>
<stop offset="1" stop-color="#FF9C00"/>
</linearGradient>
<linearGradient id="paint2_linear_4069_909" x1="21.9771" y1="19.7388" x2="7.8727" y2="43.4758" gradientUnits="userSpaceOnUse">
<stop stop-color="#FF3A44"/>
<stop offset="1" stop-color="#C31162"/>
</linearGradient>
<linearGradient id="paint3_linear_4069_909" x1="6.45693" y1="0.15693" x2="12.7496" y2="10.7589" gradientUnits="userSpaceOnUse">
<stop stop-color="#32A071"/>
<stop offset="0.0685" stop-color="#2DA771"/>
<stop offset="0.4762" stop-color="#15CF74"/>
<stop offset="0.8009" stop-color="#06E775"/>
<stop offset="1" stop-color="#00F076"/>
</linearGradient>
</defs>
</svg>
